<svg id="Layer_1" data-name="Layer 1" xmlns="http://www.w3.org/2000/svg" viewBox="0 0 170.08 170.08">
  <title>mylogo-black</title>
  <g>
    <path d="M175.48,116.43l-9.54,3.22c-3.19,1.06-6.42,2-9.56,3.16s-6.29,2.22-9.41,3.32c-.66.22-1.3.45-2,.68l2.15,2.74c1.14,1.5,2.35,2.93,3.55,4.38s2.38,2.92,3.63,4.32l3.7,4.29c1.24,1.42,2.54,2.79,3.81,4.19,2.52,2.83,5.19,5.51,7.79,8.28s5.32,5.43,8.13,8l1.13,1.07V115.36l-3.42,1.07" transform="translate(-8.83 -11.23)"/>
    <path d="M165,90.14c-2.9.94-5.9,1.8-8.92,2.73s-6.14,1.73-9.22,2.79-6.22,2-9.39,3l-9.55,3-.34.11.18.29c2,3.16,4,6.31,6.13,9.38.91,1.35,1.85,2.69,2.79,4l.76-.33,4.72-1.86c3.17-1.23,6.34-2.51,9.57-3.71s6.51-2.24,9.77-3.36l9.83-3.19c2.53-.79,5.09-1.46,7.63-2.15V85.93l-5.39,1.58c-2.8.77-5.64,1.73-8.55,2.64" transform="translate(-8.83 -11.23)"/>
    <path d="M90.84,70.87c-1.36,1.17-2.71,2.34-4,3.54q-3.41,3.29-6.89,6.52c-2.28,2.19-4.7,4.26-6.84,6.58S68.65,92,66.43,94.28s-4.34,4.6-6.44,7-4.3,4.65-6.36,7-4,4.88-6.06,7.3-3.92,5-5.85,7.48l-2.91,3.77c-.87,1.1-1.63,2.26-2.44,3.41,2.7-2,5.66-4.24,9-6.36,2.17-1.42,4.42-3,6.81-4.4l7.47-4.4,1.94-1.13,2-1.06,4.1-2.14,4.21-2.17c1.42-.73,2.86-1.46,4.33-2.12,2.93-1.37,5.94-2.72,9-4.08,1.53-.67,3-1.39,4.6-2l4.72-1.86c2.7-1,5.42-2.13,8.16-3.17-.77-1.36-1.55-2.71-2.29-4.09Q97.54,85.9,95,80.41c-1.44-3.14-2.85-6.3-4.13-9.54" transform="translate(-8.83 -11.23)"/>
    <path d="M171.6,170.57c-1.64-1.1-3.23-2.27-4.81-3.45s-3.19-2.34-4.75-3.55c-3.06-2.5-6.24-4.88-9.19-7.53-1.49-1.31-3-2.59-4.47-3.93L144,148.07c-1.47-1.34-2.84-2.78-4.25-4.18s-2.82-2.8-4.17-4.27-2.74-2.89-4.08-4.37l-2.31-2.65-.46.17c-3,1-5.78,2.32-8.63,3.37s-5.62,2.13-8.26,3.28l-7.77,3.24c-2.54,1-4.88,2.17-7.21,3.15s-4.54,2-6.62,3l-5.95,2.78c-3.67,1.85-7,3.38-9.56,4.81s-4.7,2.52-6.08,3.33S66.54,161,66.54,161s.52-.68,1.62-1.88c.54-.62,1.24-1.32,2.06-2.17s1.78-1.82,2.9-2.82,2.34-2.19,3.73-3.36,2.93-2.43,4.56-3.78c3.36-2.54,7.14-5.49,11.5-8.3,2.17-1.42,4.41-3,6.81-4.4l7.47-4.4,1.94-1.13,2-1.06,4.1-2.14,4.21-2.17,1.46-.74-.9-1.17c-2.45-3.16-4.78-6.42-7.07-9.7-1-1.38-1.89-2.78-2.81-4.19-.45.16-.92.3-1.36.46-3.14,1.16-6.29,2.22-9.41,3.32-6.29,2.08-12.28,4.54-18.23,6.64-3,1-5.79,2.32-8.63,3.37s-5.62,2.13-8.25,3.28l-7.77,3.23c-2.54,1-4.88,2.17-7.21,3.16s-4.55,2-6.62,3l-5.95,2.78c-2.67,1.34-5.13,2.52-7.28,3.61l-1.38,2.16c-.86,1.34-1.78,2.65-2.55,4l-2.42,4.13c-.83,1.37-1.65,2.74-2.38,4.16-1.5,2.82-3.08,5.62-4.44,8.52s-2.74,5.82-4,8.78c-.2.48-.38,1-.58,1.45a17,17,0,0,0,14.2,7.69h136a17,17,0,0,0,14.21-7.69q-2.26-1.49-4.49-3" transform="translate(-8.83 -11.23)"/>
    <path d="M10.66,166.6c.29-1.64.71-3.23,1.12-4.84s.77-3.23,1.27-4.81l1.48-4.75c.94-3.2,2.23-6.24,3.38-9.38s2.6-6.11,3.94-9.17c.65-1.54,1.39-3,2.15-4.51l2.28-4.45c.78-1.46,1.49-3,2.34-4.42L31.12,116c1.72-2.85,3.34-5.79,5.24-8.51s3.7-5.54,5.58-8.3,4-5.33,6-8,4-5.32,6.25-7.8,4.31-5.08,6.51-7.58,4.54-4.86,6.82-7.29,4.62-4.79,7-7.16,4.87-4.52,7.3-6.78,4.89-4.5,7.37-6.72l10.71-9.59,4.23,14.32.31,1.06.39,1.23.85,2.53q.9,2.54,1.9,5.1c1.34,3.39,2.78,6.79,4.3,10.15s3.15,6.69,4.86,10c1.14,2.25,2.34,4.47,3.56,6.69l3.42-1.11c3.28-1,6.59-1.84,9.86-2.76,6.53-1.81,13-3.5,19.31-4.76s12.4-2.64,18.23-3.59q4-.62,7.83-1.17V28.25a17.07,17.07,0,0,0-17-17h-136a17.07,17.07,0,0,0-17,17v136a16.85,16.85,0,0,0,1.13,6c.21-1.24.47-2.47.7-3.71" transform="translate(-8.83 -11.23)"/>
  </g>
</svg>
