<?xml version="1.0" encoding="utf-8"?>
<!-- Generator: Adobe Illustrator 21.0.0, SVG Export Plug-In . SVG Version: 6.00 Build 0)  -->
<svg version="1.1" id="Layer_1" xmlns="http://www.w3.org/2000/svg" xmlns:xlink="http://www.w3.org/1999/xlink" x="0px" y="0px"
	 viewBox="0 0 132 149" style="enable-background:new 0 0 132 149;" xml:space="preserve">
<style type="text/css">
	.st0{fill:#FFFFFF;}
	.st1{fill:#989898;stroke:#989898;stroke-miterlimit:10;}
	.st2{opacity:0.3;fill:url(#SVGID_1_);enable-background:new    ;}
	.st3{opacity:0.15;fill:url(#SVGID_2_);enable-background:new    ;}
</style>
<path class="st0" d="M51.9,4.9c16.8-7.5,36-6.3,51.7,3.2c15.8,9.5,26.2,26.2,28.1,45s-5,37.3-18.5,50c-5.5,24.9-25.8,43.3-50.4,45.7
	c-24.6,2.4-47.9-11.7-57.9-35C-5.1,90.4,0.5,63.1,18.8,46C22.9,27.6,35.2,12.4,51.9,4.9z M111.1,69.6L86.2,38.8L111.1,69.6
	L111.1,69.6z M111.1,69.6c0.3,0.8,0.6,1.6,0.8,2.5c0-0.1,0.1-0.1,0.1-0.2c0.1-0.2,0.3-0.4,0.4-0.7L111.1,69.6z M111.1,69.6l1.3,1.7
	c7.2-12.3,7.4-27.6,0.6-40.1S93.3,11,79.4,11s-26.7,7.8-33.5,20.3c-0.1,0.2-0.2,0.3-0.3,0.5c-0.1,0.1-0.1,0.2-0.2,0.3
	C35.3,51,41.6,74.7,59.7,85.6c6.5,4.1,8.6,12.7,4.8,19.5c-3.8,6.8-12.2,9.1-18.8,5.2C33.5,102.8,24.3,91,20,77
	c0,0.1-0.1,0.1-0.1,0.2c-0.1,0.2-0.3,0.4-0.4,0.7c-10.7,19-4.6,43.3,13.8,54.4c18.4,11.1,41.9,4.7,52.7-14.2
	c0.1-0.2,0.2-0.3,0.3-0.5c0.1-0.1,0.1-0.2,0.2-0.3c10.1-18.9,3.8-42.7-14.2-53.6c-4.4-2.5-7-7.3-7-12.5s2.7-9.9,7.1-12.5
	c4.4-2.5,9.7-2.4,14,0.2l0,0C97.8,45.8,106.6,56.7,111.1,69.6z"/>
<path class="st1" d="M51.9,4.9c16.8-7.5,36-6.3,51.7,3.2c15.8,9.5,26.2,26.2,28.1,45s-5,37.3-18.5,50c-5.5,24.9-25.8,43.3-50.4,45.7
	c-24.6,2.4-47.9-11.7-57.9-35C-5.1,90.4,0.5,63.1,18.8,46C22.9,27.6,35.2,12.4,51.9,4.9z M111.1,69.6L86.2,38.8L111.1,69.6
	L111.1,69.6z M111.1,69.6c0.3,0.8,0.6,1.6,0.8,2.5c0-0.1,0.1-0.1,0.1-0.2c0.1-0.2,0.3-0.4,0.4-0.7L111.1,69.6z M111.1,69.6l1.3,1.7
	c7.2-12.3,7.4-27.6,0.6-40.1S93.3,11,79.4,11s-26.7,7.8-33.5,20.3c-0.1,0.2-0.2,0.3-0.3,0.5c-0.1,0.1-0.1,0.2-0.2,0.3
	C35.3,51,41.6,74.7,59.7,85.6c6.5,4.1,8.6,12.7,4.8,19.5c-3.8,6.8-12.2,9.1-18.8,5.2C33.5,102.8,24.3,91,20,77
	c0,0.1-0.1,0.1-0.1,0.2c-0.1,0.2-0.3,0.4-0.4,0.7c-10.7,19-4.6,43.3,13.8,54.4c18.4,11.1,41.9,4.7,52.7-14.2
	c0.1-0.2,0.2-0.3,0.3-0.5c0.1-0.1,0.1-0.2,0.2-0.3c10.1-18.9,3.8-42.7-14.2-53.6c-4.4-2.5-7-7.3-7-12.5s2.7-9.9,7.1-12.5
	c4.4-2.5,9.7-2.4,14,0.2l0,0C97.8,45.8,106.6,56.7,111.1,69.6z"/>
<g>
	
		<linearGradient id="SVGID_1_" gradientUnits="userSpaceOnUse" x1="12.1289" y1="970.4427" x2="42.9816" y2="960.3257" gradientTransform="matrix(1 0 0 1 0 -874)">
		<stop  offset="0" style="stop-color:#C2C2C2;stop-opacity:1.000000e-02"/>
		<stop  offset="1" style="stop-color:#AFAFAF"/>
	</linearGradient>
	<path class="st2" d="M34,131.2C15.3,120.1,9,95.8,19.9,76.8c0.2-0.3,0.3-0.6,0.5-0.8c-3.1-10-3.6-20.7-1.3-30.9
		C5.4,57.7-1.6,76.2,0.3,95s12.5,35.5,28.6,45L34,131.2z"/>
	
		<linearGradient id="SVGID_2_" gradientUnits="userSpaceOnUse" x1="124.7193" y1="925.1073" x2="81.223" y2="934.6804" gradientTransform="matrix(1 0 0 1 0 -874)">
		<stop  offset="0" style="stop-color:#000000;stop-opacity:1.000000e-02"/>
		<stop  offset="1" style="stop-color:#000000"/>
	</linearGradient>
	<path class="st3" d="M98,15c9.8,5.4,16.9,14.4,19.8,24.8s1.3,21.5-4.5,30.8c-0.2,0.3-0.4,0.6-0.6,0.9c3.4,10.2,3.9,21.1,1.4,31.6
		c15-12.9,22.6-31.9,20.6-51c-2.1-19.2-13.7-36.2-31.1-46L98,15z"/>
</g>
</svg>
